<?xml version="1.0" encoding="UTF-8" standalone="no"?>
<!-- Created with Inkscape (http://www.inkscape.org/) -->

<svg
   width="48.349247mm"
   height="49.504116mm"
   viewBox="0 0 48.349247 49.504116"
   version="1.1"
   id="svg1"
   xmlns="http://www.w3.org/2000/svg"
   xmlns:svg="http://www.w3.org/2000/svg">
  <defs
     id="defs1" />
  <g
     id="layer1"
     transform="translate(-85.78015,-92.56685)">
    <path
       style="fill-rule:evenodd;stroke-width:0.889491"
       d="m 91.632773,138.68349 c 5.045921,4.03675 12.492127,4.69953 18.669967,0.71444 6.63497,-4.27995 9.74665,-13.39309 5.46566,-20.09268 -3.28191,-5.13607 -10.62611,-7.16795 -16.162285,-2.89342 -1.965807,1.51783 -3.323456,3.67479 -3.848082,6.05075 -0.524632,2.37596 -0.0942,5.11803 1.727859,7.08931 1.158029,1.25286 2.667028,1.95013 4.443968,2.05034 1.77693,0.10021 6.12979,-2.9401 5.16128,-3.75285 l -3.31458,-2.35038 c -0.39562,-0.50885 -0.91323,0.60345 -1.20515,0.58699 -0.29192,-0.0165 -0.87447,-0.30923 -0.99681,-0.44159 -0.5857,-0.63367 -0.70766,-1.34456 -0.49652,-2.30073 0.21113,-0.95618 0.8779,-2.01066 1.66015,-2.61464 2.69672,-2.08218 6.63577,-0.97966 8.39717,1.77687 2.51707,3.93913 1.67526,9.45472 -2.44984,12.11566 -5.40029,3.48351 -15.066121,0.39346 -16.978802,-5.36962 -1.320382,-3.97844 1.182804,-10.96946 0.273924,-11.19561 l -3.655072,-1.84982 c -1.873695,-1.47019 -4.068473,12.11233 -1.065546,17.47726 1.090546,1.94834 2.584633,3.56926 4.26661,4.91483 z"
       id="path43" />
    <path
       d="m 94.627408,101.80784 3.91091,1.58459 c 0.238861,0.14849 -2.74472,6.43668 -2.941278,5.63322 l -3.715058,-2.17697 c -0.380893,-0.13533 2.521255,-5.16456 2.745423,-5.04084 z"
       id="path44"/>
    <path
       d="m 109.37415,102.0093 3.91091,1.58459 c 0.23886,0.14849 -2.74472,6.43668 -2.94127,5.63322 l -3.71506,-2.17697 c -0.3809,-0.13533 2.52125,-5.16456 2.74542,-5.04084 z"
       id="path46"/>
    <path
       d="m 102.63394,92.70113 3.91091,1.58459 c 0.23886,0.14849 -2.74472,6.43668 -2.94127,5.633216 L 99.888519,97.74197 c -0.3809,-0.13533 2.521251,-5.16456 2.745421,-5.04084 z"
       id="path48"/>
    <path
       id="path1"
       style="fill:none;;stroke-width:3.77097"
       d="m 46.32714,27.922118 c -0.535534,3.091834 0.09576,5.248581 -5.052357,4.508006 -3.847182,-0.553431 -6.525314,-3.151805 -6.525314,-7.197751 0,-4.045946 2.512508,-5.403084 6.397231,-5.276504 3.886784,0.126648 5.865523,4.011017 5.18044,7.966249 z"
       transform="translate(85.78015,92.56685)" />
  </g>
  <style>
    path { stroke: #000; fill: #000;}
    @media (prefers-color-scheme: dark) {
    path { stroke: #FFF;  fill: #FFF;}
    }
  </style>
</svg>
